<?xml version="1.0" encoding="UTF-8"?>
<svg xmlns="http://www.w3.org/2000/svg" xmlns:xlink="http://www.w3.org/1999/xlink" width="2834.88" height="2834.88" viewBox="0 0 2834.88 2834.88">
<path fill-rule="evenodd" fill="rgb(0%, 0%, 0%)" fill-opacity="1" d="M 1417.320312 2306.167969 L 1416.371094 2306.175781 L 1416.378906 2306.300781 L 1407.820312 2306.238281 L 1399.269531 2306.300781 L 1399.269531 2306.175781 L 457.015625 2299.308594 C 457.015625 2299.308594 443.984375 2037.558594 525.519531 1869.824219 C 607.054688 1702.089844 828.367188 1720.730469 937.859375 1674.140625 C 1047.351562 1627.550781 1171.710938 1553.941406 1195.941406 1494.300781 C 1209.96875 1459.75 1207.101562 1402.769531 1202.210938 1360.949219 C 1192.800781 1352.730469 1184.429688 1343.441406 1177.359375 1332.960938 C 1132.019531 1265.75 1120.390625 1222.839844 1096.789062 1141.289062 C 1066.960938 1145.980469 1051.949219 1112.839844 1041.75 1071.351562 C 1031.160156 1028.25 1031.058594 991.960938 1061.871094 984.390625 C 1072.359375 981.808594 1083.160156 983.449219 1093.269531 988.421875 C 1093.269531 988.421875 1070.988281 881.789062 1081.828125 783.238281 C 1096.828125 646.800781 1196.578125 526.53125 1407.820312 528.761719 C 1411.019531 528.789062 1423.628906 528.789062 1426.820312 528.761719 C 1638.058594 526.53125 1737.820312 646.800781 1752.820312 783.238281 C 1763.648438 881.789062 1741.371094 988.421875 1741.371094 988.421875 C 1751.488281 983.449219 1762.289062 981.808594 1772.769531 984.390625 C 1803.589844 991.960938 1803.488281 1028.25 1792.890625 1071.351562 C 1782.699219 1112.839844 1767.691406 1145.980469 1737.859375 1141.289062 C 1714.261719 1222.839844 1702.628906 1265.75 1657.289062 1332.960938 C 1650.210938 1343.441406 1641.839844 1352.730469 1632.441406 1360.949219 C 1627.539062 1402.769531 1624.671875 1459.75 1638.710938 1494.300781 C 1662.941406 1553.941406 1787.289062 1627.550781 1896.789062 1674.140625 C 2006.28125 1720.730469 2227.589844 1702.089844 2309.128906 1869.824219 C 2390.660156 2037.558594 2377.628906 2299.308594 2377.628906 2299.308594 L 1435.371094 2306.175781 L 1435.371094 2306.300781 L 1426.820312 2306.238281 L 1418.269531 2306.300781 L 1418.269531 2306.175781 L 1417.320312 2306.167969 "/>
</svg>
