<?xml version="1.0" encoding="UTF-8"?>
<svg xmlns="http://www.w3.org/2000/svg" xmlns:xlink="http://www.w3.org/1999/xlink" width="3000" height="3000" viewBox="0 0 3000 3000">
<path fill-rule="nonzero" fill="rgb(97.647095%, 92.941284%, 87.843323%)" fill-opacity="1" d="M 890.625 1593.75 C 890.625 1697.300781 974.578125 1781.25 1078.128906 1781.25 L 1218.75 1781.25 C 1218.75 1677.699219 1302.699219 1593.75 1406.25 1593.75 L 1593.75 1593.75 C 1697.300781 1593.75 1781.25 1677.699219 1781.25 1781.25 L 1921.878906 1781.25 C 2025.421875 1781.25 2109.378906 1697.300781 2109.378906 1593.75 C 2109.378906 1490.199219 2193.328125 1406.25 2296.878906 1406.25 L 2437.5 1406.25 C 2541.050781 1406.25 2625 1322.300781 2625 1218.75 C 2625 1115.199219 2541.050781 1031.25 2437.5 1031.25 L 2343.75 1031.25 L 2343.75 1078.121094 C 2240.199219 1078.121094 2156.25 994.171875 2156.25 890.621094 C 2156.25 761.199219 2051.300781 656.25 1921.878906 656.25 L 1500 750 L 1078.128906 656.25 C 948.703125 656.25 843.75 761.199219 843.75 890.621094 C 843.75 994.171875 759.796875 1078.121094 656.25 1078.121094 L 656.25 1031.25 L 562.5 1031.25 C 458.953125 1031.25 375 1115.199219 375 1218.75 C 375 1322.300781 458.953125 1406.25 562.5 1406.25 L 703.125 1406.25 C 806.671875 1406.25 890.625 1490.199219 890.625 1593.75 Z M 1828.128906 984.371094 C 1957.550781 984.371094 2062.5 1089.328125 2062.5 1218.75 C 2062.5 1348.171875 1957.550781 1453.121094 1828.128906 1453.121094 C 1698.699219 1453.121094 1593.75 1348.171875 1593.75 1218.75 C 1593.75 1089.328125 1698.699219 984.371094 1828.128906 984.371094 Z M 1171.878906 984.371094 C 1301.300781 984.371094 1406.25 1089.328125 1406.25 1218.75 C 1406.25 1348.171875 1301.300781 1453.121094 1171.878906 1453.121094 C 1042.449219 1453.121094 937.5 1348.171875 937.5 1218.75 C 937.5 1089.328125 1042.449219 984.371094 1171.878906 984.371094 "/>
<path fill-rule="nonzero" fill="rgb(77.6474%, 76.470947%, 74.118042%)" fill-opacity="1" d="M 843.75 890.621094 C 843.75 761.199219 948.703125 656.25 1078.128906 656.25 L 1500 750 L 1921.878906 656.25 C 2051.300781 656.25 2156.25 761.199219 2156.25 890.621094 C 2156.25 994.171875 2240.199219 1078.121094 2343.75 1078.121094 L 2343.75 984.371094 C 2343.75 518.390625 1965.980469 140.621094 1500 140.621094 C 1034.019531 140.621094 656.25 518.390625 656.25 984.371094 L 656.25 1078.121094 C 759.796875 1078.121094 843.75 994.171875 843.75 890.621094 "/>
<path fill-rule="nonzero" fill="rgb(77.6474%, 76.470947%, 74.118042%)" fill-opacity="1" d="M 1220.578125 2154.75 C 1237.78125 2160.84375 1255.308594 2166.328125 1273.03125 2171.34375 C 1286.71875 2175.1875 1300.449219 2178.84375 1314.421875 2181.984375 C 1323.660156 2184.09375 1332.941406 2186.0625 1342.308594 2187.84375 C 1363.78125 2191.921875 1385.441406 2195.390625 1407.46875 2197.78125 C 1412.859375 2198.390625 1418.300781 2198.765625 1423.730469 2199.234375 C 1448.859375 2201.53125 1474.269531 2203.125 1500 2203.125 C 1525.730469 2203.125 1551.140625 2201.53125 1576.308594 2199.28125 C 1581.75 2198.765625 1587.191406 2198.4375 1592.578125 2197.828125 C 1614.558594 2195.4375 1636.269531 2191.96875 1657.730469 2187.890625 C 1667.058594 2186.109375 1676.390625 2184.140625 1685.628906 2182.03125 C 1699.589844 2178.890625 1713.328125 2175.1875 1727.019531 2171.390625 C 1744.730469 2166.375 1762.21875 2160.890625 1779.46875 2154.796875 C 1784.949219 2152.875 1790.339844 2150.859375 1795.78125 2148.84375 C 1822.828125 2138.625 1849.308594 2127.234375 1875 2114.484375 C 2139.328125 1982.949219 2324.300781 1717.359375 2341.449219 1406.300781 L 2296.878906 1406.300781 C 2193.328125 1406.300781 2109.378906 1490.25 2109.378906 1593.800781 C 2109.378906 1697.339844 2025.421875 1781.300781 1921.878906 1781.300781 L 1781.25 1781.300781 C 1781.25 1677.75 1697.300781 1593.800781 1593.75 1593.800781 L 1406.25 1593.800781 C 1302.699219 1593.800781 1218.75 1677.75 1218.75 1781.300781 L 1078.128906 1781.300781 C 974.578125 1781.300781 890.625 1697.339844 890.625 1593.800781 C 890.625 1490.25 806.671875 1406.300781 703.125 1406.300781 L 658.640625 1406.300781 C 675.796875 1717.308594 860.765625 1982.910156 1125.089844 2114.484375 C 1150.78125 2127.28125 1177.269531 2138.625 1204.308594 2148.84375 C 1209.699219 2150.8125 1215.089844 2152.828125 1220.578125 2154.75 "/>
<path fill-rule="nonzero" fill="rgb(97.647095%, 92.941284%, 87.843323%)" fill-opacity="1" d="M 1875 2114.390625 C 1875 2114.390625 1874.949219 2114.390625 1874.910156 2114.4375 C 1849.21875 2127.234375 1822.730469 2138.578125 1795.691406 2148.796875 C 1790.300781 2150.8125 1784.859375 2152.828125 1779.378906 2154.75 C 1762.171875 2160.84375 1744.640625 2166.328125 1726.921875 2171.34375 C 1713.230469 2175.1875 1699.5 2178.84375 1685.53125 2181.984375 C 1676.300781 2184.09375 1667.019531 2186.0625 1657.640625 2187.84375 C 1636.171875 2191.921875 1614.519531 2195.390625 1592.480469 2197.78125 C 1587.089844 2198.390625 1581.660156 2198.765625 1576.21875 2199.234375 C 1551.140625 2201.53125 1525.730469 2203.125 1500 2203.125 C 1474.269531 2203.125 1448.859375 2201.53125 1423.691406 2199.28125 C 1418.25 2198.765625 1412.808594 2198.4375 1407.421875 2197.828125 C 1385.441406 2195.4375 1363.730469 2191.96875 1342.269531 2187.890625 C 1332.941406 2186.109375 1323.609375 2184.140625 1314.378906 2182.03125 C 1300.410156 2178.890625 1286.671875 2175.1875 1272.980469 2171.390625 C 1255.269531 2166.375 1237.78125 2160.890625 1220.53125 2154.796875 C 1215.050781 2152.875 1209.660156 2150.859375 1204.21875 2148.84375 C 1177.171875 2138.625 1150.691406 2127.234375 1125 2114.484375 C 1125 2114.484375 1124.949219 2114.484375 1124.910156 2114.4375 L 1124.910156 2390.625 L 1874.910156 2390.625 L 1874.910156 2114.390625 "/>
<path fill-rule="nonzero" fill="rgb(24.705505%, 36.470032%, 42.744446%)" fill-opacity="1" d="M 2578.128906 2484.375 L 1875 2484.375 L 1875 2390.625 L 1125 2390.625 L 1125 2484.375 L 421.875 2484.375 C 266.53125 2484.375 140.625 2610.28125 140.625 2765.625 L 140.625 2906.25 L 2859.378906 2906.25 L 2859.378906 2765.625 C 2859.378906 2610.28125 2733.46875 2484.375 2578.128906 2484.375 "/>
<path fill-rule="nonzero" fill="rgb(93.725586%, 92.549133%, 90.98053%)" fill-opacity="1" d="M 1406.25 1218.75 C 1406.25 1348.191406 1301.320312 1453.121094 1171.878906 1453.121094 C 1042.429688 1453.121094 937.5 1348.191406 937.5 1218.75 C 937.5 1089.308594 1042.429688 984.371094 1171.878906 984.371094 C 1301.320312 984.371094 1406.25 1089.308594 1406.25 1218.75 "/>
<path fill-rule="nonzero" fill="rgb(93.725586%, 92.549133%, 90.98053%)" fill-opacity="1" d="M 2062.5 1218.75 C 2062.5 1348.191406 1957.570312 1453.121094 1828.128906 1453.121094 C 1698.679688 1453.121094 1593.75 1348.191406 1593.75 1218.75 C 1593.75 1089.308594 1698.679688 984.371094 1828.128906 984.371094 C 1957.570312 984.371094 2062.5 1089.308594 2062.5 1218.75 "/>
<path fill-rule="nonzero" fill="rgb(29.411316%, 25.489807%, 22.3526%)" fill-opacity="1" d="M 2578.128906 2437.5 L 1921.878906 2437.5 L 1921.878906 2143.453125 C 2174.628906 2006.90625 2354.199219 1751.808594 2385.609375 1453.121094 L 2437.5 1453.121094 C 2566.730469 1453.121094 2671.878906 1347.980469 2671.878906 1218.75 C 2671.878906 1089.519531 2566.730469 984.371094 2437.5 984.371094 L 2390.628906 984.371094 C 2390.628906 493.269531 1991.109375 93.75 1500 93.75 C 1008.890625 93.75 609.375 493.269531 609.375 984.371094 L 562.5 984.371094 C 433.265625 984.371094 328.125 1089.519531 328.125 1218.75 C 328.125 1347.980469 433.265625 1453.121094 562.5 1453.121094 L 614.390625 1453.121094 C 645.796875 1751.808594 825.375 2006.90625 1078.128906 2143.453125 L 1078.128906 2437.5 L 421.875 2437.5 C 240.9375 2437.5 93.75 2584.6875 93.75 2765.625 L 93.75 2906.25 L 187.5 2906.25 L 187.5 2765.625 C 187.5 2636.390625 292.640625 2531.25 421.875 2531.25 L 1125 2531.25 C 1150.878906 2531.25 1171.878906 2510.25 1171.878906 2484.375 L 1171.878906 2437.5 L 1828.128906 2437.5 L 1828.128906 2484.375 C 1828.128906 2510.25 1849.128906 2531.25 1875 2531.25 L 2578.128906 2531.25 C 2707.359375 2531.25 2812.5 2636.390625 2812.5 2765.625 L 2812.5 2906.25 L 2906.25 2906.25 L 2906.25 2765.625 C 2906.25 2584.6875 2759.058594 2437.5 2578.128906 2437.5 Z M 2099.910156 1147.640625 C 2068.269531 1026.941406 1958.628906 937.5 1828.128906 937.5 C 1689.050781 937.5 1573.550781 1039.078125 1551.089844 1171.871094 L 1448.910156 1171.871094 C 1426.5 1039.078125 1311 937.5 1171.878906 937.5 C 1041.378906 937.5 931.734375 1026.941406 900.09375 1147.640625 L 781.21875 1088.199219 C 846.75 1046.578125 890.625 973.828125 890.625 890.621094 C 890.625 788.859375 972.09375 705.800781 1073.25 703.171875 L 1489.828125 795.75 C 1496.53125 797.25 1503.46875 797.25 1510.171875 795.75 L 1926.75 703.171875 C 2027.910156 705.800781 2109.378906 788.859375 2109.378906 890.621094 C 2109.378906 973.828125 2153.25 1046.578125 2218.828125 1088.199219 Z M 2015.628906 1218.75 C 2015.628906 1322.160156 1931.53125 1406.25 1828.128906 1406.25 C 1724.71875 1406.25 1640.628906 1322.160156 1640.628906 1218.75 C 1640.628906 1115.339844 1724.71875 1031.25 1828.128906 1031.25 C 1931.53125 1031.25 2015.628906 1115.339844 2015.628906 1218.75 Z M 1359.378906 1218.75 C 1359.378906 1322.160156 1275.28125 1406.25 1171.878906 1406.25 C 1068.46875 1406.25 984.375 1322.160156 984.375 1218.75 C 984.375 1115.339844 1068.46875 1031.25 1171.878906 1031.25 C 1275.28125 1031.25 1359.378906 1115.339844 1359.378906 1218.75 Z M 703.125 1153.96875 L 892.21875 1248.519531 C 907.171875 1389.660156 1026.839844 1500 1171.878906 1500 C 1310.949219 1500 1426.449219 1398.421875 1448.910156 1265.621094 L 1551.140625 1265.621094 C 1573.550781 1398.421875 1689.050781 1500 1828.171875 1500 C 1973.199219 1500 2092.878906 1389.660156 2107.828125 1248.519531 L 2296.878906 1153.96875 L 2296.878906 1359.371094 C 2167.640625 1359.371094 2062.5 1464.519531 2062.5 1593.75 C 2062.5 1671.28125 1999.410156 1734.371094 1921.878906 1734.371094 L 1823.390625 1734.371094 C 1801.640625 1627.550781 1706.910156 1546.871094 1593.75 1546.871094 L 1406.25 1546.871094 C 1293.050781 1546.871094 1198.359375 1627.550781 1176.609375 1734.371094 L 1078.128906 1734.371094 C 1000.589844 1734.371094 937.5 1671.28125 937.5 1593.75 C 937.5 1464.519531 832.359375 1359.371094 703.125 1359.371094 Z M 2437.5 1078.121094 C 2515.03125 1078.121094 2578.128906 1141.21875 2578.128906 1218.75 C 2578.128906 1296.28125 2515.03125 1359.371094 2437.5 1359.371094 L 2390.628906 1359.371094 L 2390.628906 1078.121094 Z M 1500 187.5 C 1939.410156 187.5 2296.878906 544.96875 2296.878906 984.371094 L 2296.878906 1022.621094 C 2242.449219 1003.21875 2203.128906 951.660156 2203.128906 890.621094 C 2203.128906 735.519531 2076.980469 609.371094 1921.878906 609.371094 C 1918.449219 609.371094 1915.03125 609.75 1911.699219 610.5 L 1500 702 L 1088.300781 610.5 C 1084.96875 609.75 1081.550781 609.371094 1078.128906 609.371094 C 923.015625 609.371094 796.875 735.519531 796.875 890.621094 C 796.875 951.660156 757.546875 1003.21875 703.125 1022.621094 L 703.125 984.371094 C 703.125 544.96875 1060.589844 187.5 1500 187.5 Z M 562.5 1359.371094 C 484.96875 1359.371094 421.875 1296.28125 421.875 1218.75 C 421.875 1141.21875 484.96875 1078.121094 562.5 1078.121094 L 609.375 1078.121094 L 609.375 1359.371094 Z M 709.21875 1453.730469 C 783.890625 1457.019531 843.75 1518.28125 843.75 1593.75 C 843.75 1722.980469 948.890625 1828.121094 1078.128906 1828.121094 L 1218.75 1828.121094 C 1244.628906 1828.121094 1265.628906 1807.121094 1265.628906 1781.25 C 1265.628906 1703.71875 1328.71875 1640.621094 1406.25 1640.621094 L 1593.75 1640.621094 C 1671.28125 1640.621094 1734.378906 1703.71875 1734.378906 1781.25 C 1734.378906 1807.121094 1755.378906 1828.121094 1781.25 1828.121094 L 1921.878906 1828.121094 C 2051.109375 1828.121094 2156.25 1722.980469 2156.25 1593.75 C 2156.25 1518.28125 2216.109375 1457.019531 2290.78125 1453.730469 C 2258.339844 1727.019531 2087.109375 1957.730469 1849.691406 2074.3125 C 1824.699219 2086.546875 1799.25 2097.375 1773.46875 2106.890625 C 1770.519531 2107.96875 1767.609375 2109.09375 1764.609375 2110.125 C 1738.449219 2119.40625 1711.921875 2127.1875 1685.160156 2133.65625 C 1682.910156 2134.171875 1680.75 2134.875 1678.5 2135.390625 C 1560.980469 2162.578125 1439.019531 2162.578125 1321.5 2135.390625 C 1319.25 2134.875 1317.089844 2134.21875 1314.839844 2133.65625 C 1288.078125 2127.234375 1261.550781 2119.40625 1235.390625 2110.125 C 1232.441406 2109.09375 1229.480469 2107.96875 1226.53125 2106.890625 C 1200.75 2097.421875 1175.300781 2086.59375 1150.308594 2074.3125 C 912.890625 1957.730469 741.703125 1727.058594 709.21875 1453.730469 Z M 1171.878906 2343.75 L 1171.878906 2186.71875 C 1174.359375 2187.703125 1176.890625 2188.359375 1179.378906 2189.296875 C 1202.199219 2198.15625 1225.308594 2206.359375 1248.980469 2213.34375 C 1254.558594 2214.984375 1260.28125 2216.15625 1265.910156 2217.703125 C 1287.421875 2223.5625 1309.03125 2229.140625 1331.160156 2233.40625 C 1338.140625 2234.765625 1345.269531 2235.46875 1352.25 2236.640625 C 1373.25 2240.15625 1394.199219 2243.625 1415.671875 2245.6875 C 1422.230469 2246.296875 1428.800781 2246.203125 1435.359375 2246.671875 C 1456.78125 2248.265625 1478.160156 2250 1500 2250 C 1521.839844 2250 1543.21875 2248.265625 1564.691406 2246.71875 C 1571.25 2246.25 1577.808594 2246.34375 1584.378906 2245.734375 C 1605.839844 2243.71875 1626.800781 2240.25 1647.800781 2236.6875 C 1654.828125 2235.515625 1661.910156 2234.8125 1668.890625 2233.453125 C 1691.019531 2229.1875 1712.628906 2223.609375 1734.140625 2217.75 C 1739.769531 2216.203125 1745.441406 2215.03125 1751.058594 2213.390625 C 1774.730469 2206.40625 1797.839844 2198.203125 1820.671875 2189.34375 C 1823.160156 2188.359375 1825.691406 2187.75 1828.171875 2186.765625 L 1828.171875 2343.75 L 1171.878906 2343.75 "/>
</svg>
