<?xml version="1.0" encoding="UTF-8"?>
<svg xmlns="http://www.w3.org/2000/svg" xmlns:xlink="http://www.w3.org/1999/xlink" width="2501" height="2501" viewBox="0 0 2501 2501">
<path fill-rule="evenodd" fill="rgb(0%, 0%, 0%)" fill-opacity="1" d="M 1222.570312 721.289062 L 1109.878906 721.289062 C 1070.148438 721.289062 1036.050781 732.46875 1016.179688 752 C 996.320312 771.53125 996.320312 793.878906 1016.179688 813.410156 L 1073.558594 869.820312 L 1130.941406 926.230469 L 1056.980469 1138.800781 C 1147.171875 1192.039062 1225.53125 1327.210938 1250.839844 1380.96875 C 1253.71875 1377.039062 1256.03125 1372.179688 1257.910156 1366.601562 C 1288.75 1306.121094 1361.71875 1187.78125 1444.699219 1138.800781 L 1370.738281 926.230469 L 1428.121094 869.820312 L 1485.5 813.410156 C 1505.359375 793.878906 1505.359375 771.53125 1485.5 752 C 1465.628906 732.46875 1431.53125 721.289062 1391.800781 721.289062 L 1222.570312 721.289062 "/>
<path fill="none" stroke-width="5.0003" stroke-linecap="butt" stroke-linejoin="miter" stroke="rgb(0%, 0%, 0%)" stroke-opacity="1" stroke-miterlimit="2.61313" d="M 12096.015625 1136.289062 L 12050 1136.289062 L 12050 1274.453125 L 12096.015625 1274.453125 Z M 12096.015625 1136.289062 " transform="matrix(0.1, 0, 0, -0.1, 0, 2501)"/>
<path fill-rule="evenodd" fill="rgb(0%, 0%, 0%)" fill-opacity="1" d="M 1774.53125 940.308594 C 1732.851562 1026.230469 1436.730469 1033.5 1250.839844 1034.25 C 1064.949219 1033.5 768.832031 1026.230469 727.148438 940.308594 C 705.011719 943.109375 835.90625 787.160156 858.476562 521.410156 C 874.808594 329.101562 972.34375 136.609375 1250.839844 112.949219 C 1529.339844 136.609375 1626.871094 329.101562 1643.199219 521.410156 C 1665.769531 787.160156 1796.671875 943.109375 1774.53125 940.308594 "/>
<path fill-rule="evenodd" fill="rgb(0%, 0%, 0%)" fill-opacity="1" d="M 1033.238281 1149.808594 C 992.160156 1186.089844 958.070312 1408.261719 1081.328125 1372.699219 C 1170.378906 1347 1221.789062 1435.859375 1250.839844 1483.71875 L 1250.839844 2047.664062 L 632.65625 2047.664062 C 528.761719 2047.664062 469.246094 1979.675781 485.097656 1874.828125 C 506.894531 1730.703125 528.683594 1586.574219 550.480469 1442.449219 C 566.582031 1335.941406 580.933594 1289.070312 645.367188 1261.078125 C 748.425781 1216.320312 920.238281 1177.710938 1033.238281 1149.808594 "/>
<path fill-rule="evenodd" fill="rgb(0%, 0%, 0%)" fill-opacity="1" d="M 1468.441406 1149.808594 C 1509.519531 1186.089844 1543.609375 1408.261719 1420.351562 1372.699219 C 1331.300781 1347 1279.890625 1435.859375 1250.839844 1483.71875 L 1250.839844 2047.664062 L 1869.019531 2047.664062 C 1972.921875 2047.664062 2032.429688 1979.675781 2016.578125 1874.828125 C 1994.789062 1730.703125 1972.988281 1586.574219 1951.199219 1442.449219 C 1935.101562 1335.941406 1920.75 1289.070312 1856.308594 1261.078125 C 1753.25 1216.320312 1581.441406 1177.710938 1468.441406 1149.808594 "/>
</svg>
